<svg xmlns="http://www.w3.org/2000/svg" viewBox="0 0 800 400" width="400" height="200">
  <!-- Corps du bus -->
  <rect x="50" y="100" width="700" height="180" rx="20" ry="20" fill="#1E88E5" stroke="#0D47A1" stroke-width="3"/>
  
  <!-- Toit -->
  <rect x="50" y="90" width="700" height="20" fill="#1565C0"/>

  <!-- Pare-brise -->
  <polygon points="50,100 100,100 100,180 50,180" fill="#BBDEFB" stroke="#0D47A1" stroke-width="2"/>

  <!-- Fenêtres -->
  <rect x="110" y="110" width="80" height="60" fill="#E3F2FD" stroke="#0D47A1" stroke-width="1.5"/>
  <rect x="200" y="110" width="80" height="60" fill="#E3F2FD" stroke="#0D47A1" stroke-width="1.5"/>
  <rect x="290" y="110" width="80" height="60" fill="#E3F2FD" stroke="#0D47A1" stroke-width="1.5"/>
  <rect x="380" y="110" width="80" height="60" fill="#E3F2FD" stroke="#0D47A1" stroke-width="1.5"/>
  <rect x="470" y="110" width="80" height="60" fill="#E3F2FD" stroke="#0D47A1" stroke-width="1.5"/>
  <rect x="560" y="110" width="80" height="60" fill="#E3F2FD" stroke="#0D47A1" stroke-width="1.5"/>
  <rect x="650" y="110" width="80" height="60" fill="#E3F2FD" stroke="#0D47A1" stroke-width="1.5"/>

  <!-- Portes -->
  <rect x="740" y="110" width="10" height="100" fill="#90CAF9" stroke="#0D47A1" stroke-width="1.5"/>

  <!-- Roues -->
  <circle cx="150" cy="280" r="30" fill="#212121"/>
  <circle cx="150" cy="280" r="10" fill="#B0BEC5"/>
  <circle cx="650" cy="280" r="30" fill="#212121"/>
  <circle cx="650" cy="280" r="10" fill="#B0BEC5"/>

  <!-- Phare avant -->
  <circle cx="60" cy="180" r="8" fill="#FFF176" stroke="#FBC02D" stroke-width="2"/>

  <!-- Feu arrière -->
  <rect x="740" y="180" width="6" height="12" fill="#FF5252" stroke="#B71C1C" stroke-width="1"/>

  <!-- Ligne décorative -->
  <line x1="50" y1="200" x2="750" y2="200" stroke="#90CAF9" stroke-width="4" />
</svg>
